<svg width="1155" height="1155" viewBox="0 0 1155 1155" fill="none" xmlns="http://www.w3.org/2000/svg">
<path d="M1058.92 575.118L779.842 474.813L663.187 328.345C653.043 315.943 640.266 305.956 625.782 299.107C611.298 292.258 595.471 288.72 579.449 288.75H290.843C273.194 288.75 255.811 293.065 240.21 301.319C224.609 309.572 211.262 321.514 201.331 336.105L103.445 479.867C83.0817 509.798 72.191 545.161 72.1875 581.362V866.25C72.1875 875.823 75.9902 885.003 82.7591 891.772C89.528 898.541 98.7086 902.344 108.281 902.344H185.594C193.446 933.321 211.402 960.796 236.623 980.421C261.843 1000.05 292.887 1010.7 324.844 1010.7C356.8 1010.7 387.845 1000.05 413.065 980.421C438.285 960.796 456.242 933.321 464.093 902.344H690.907C698.758 933.321 716.715 960.796 741.935 980.421C767.155 1000.05 798.2 1010.7 830.156 1010.7C862.113 1010.7 893.157 1000.05 918.377 980.421C943.598 960.796 961.554 933.321 969.406 902.344H1046.72C1056.29 902.344 1065.47 898.541 1072.24 891.772C1079.01 885.003 1082.81 875.823 1082.81 866.25V609.082C1082.81 601.65 1080.52 594.399 1076.24 588.32C1071.96 582.241 1065.91 577.63 1058.92 575.118ZM324.844 938.438C310.566 938.438 296.61 934.204 284.739 926.272C272.867 918.34 263.615 907.066 258.151 893.875C252.687 880.685 251.258 866.17 254.043 852.167C256.829 838.164 263.704 825.302 273.799 815.206C283.895 805.11 296.758 798.235 310.761 795.45C324.764 792.664 339.278 794.094 352.469 799.558C365.659 805.021 376.933 814.274 384.865 826.145C392.798 838.016 397.031 851.973 397.031 866.25C397.003 885.387 389.388 903.731 375.856 917.263C362.325 930.794 343.98 938.409 324.844 938.438ZM830.156 938.438C815.879 938.438 801.922 934.204 790.051 926.272C778.18 918.34 768.927 907.066 763.464 893.875C758 880.685 756.57 866.17 759.356 852.167C762.141 838.164 769.016 825.302 779.112 815.206C789.208 805.11 802.07 798.235 816.073 795.45C830.076 792.664 844.591 794.094 857.781 799.558C870.972 805.021 882.246 814.274 890.178 826.145C898.11 838.016 902.344 851.973 902.344 866.25C902.315 885.387 894.7 903.731 881.169 917.263C867.637 930.794 849.293 938.409 830.156 938.438ZM1010.62 830.156H969.406C961.554 799.179 943.598 771.705 918.377 752.079C893.157 732.454 862.113 721.798 830.156 721.798C798.2 721.798 767.155 732.454 741.935 752.079C716.715 771.705 698.758 799.179 690.907 830.156H464.093C456.242 799.179 438.285 771.705 413.065 752.079C387.845 732.454 356.8 721.798 324.844 721.798C292.887 721.798 261.843 732.454 236.623 752.079C211.402 771.705 193.446 799.179 185.594 830.156H144.375V581.362C144.376 559.63 150.915 538.401 163.144 520.436L260.994 376.747C264.303 371.877 268.752 367.891 273.955 365.135C279.158 362.379 284.956 360.938 290.843 360.938H579.449C584.701 360.939 589.889 362.086 594.652 364.299C599.415 366.512 603.637 369.738 607.025 373.751L729.743 527.799C733.917 533.038 739.466 537.012 745.769 539.277L1010.62 634.456V830.156Z" fill="#4B5563"/>
</svg>
